<svg width="172" height="25" viewBox="0 0 172 25" fill="none" xmlns="http://www.w3.org/2000/svg">
<path d="M0.380493 24.0001V1.1201H7.99649L10.7805 11.1361L12.0925 16.3521H12.1565C12.7538 13.8348 13.1805 12.0961 13.4365 11.1361L16.2525 1.1201H23.9325V24.0001H18.7485V12.4801L18.8445 7.9041H18.7805C18.2472 10.1868 17.8952 11.6054 17.7245 12.1601L14.4285 24.0001H9.75649L6.49249 12.1921L5.43649 7.9041H5.37249C5.43649 10.3574 5.46849 11.8934 5.46849 12.5121V24.0001H0.380493Z" fill="white"/>
<path d="M27.068 24.0001V1.1201H44.412V5.7921H32.732V9.8881H42.748V14.3041H32.732V19.2001H44.604V24.0001H27.068Z" fill="white"/>
<path d="M47.1617 24.0001V1.1201H52.8257V19.2001H63.0977V24.0001H47.1617Z" fill="white"/>
<path d="M63.968 24.0001L72.192 1.1201H78.016L86.272 24.0001H80.32L78.976 19.8721H70.976L69.664 24.0001H63.968ZM72.288 15.8081H77.664L75.936 10.2721L75.04 7.0401H74.976C74.6133 8.40544 74.304 9.48277 74.048 10.2721L72.288 15.8081Z" fill="white"/>
<path d="M87.8805 24.0001V1.1201H93.5765L100.36 12.6081L101.928 15.5201H101.992C101.95 13.6854 101.928 12.5014 101.928 11.9681V1.1201H107.464V24.0001H101.768L95.0485 12.6721L93.4165 9.6001H93.3525C93.3952 11.5628 93.4165 12.8108 93.4165 13.3441V24.0001H87.8805Z" fill="white"/>
<path d="M110.631 24.0001V1.1201H116.295V24.0001H110.631Z" fill="white"/>
<path d="M128.563 24.5441C125.47 24.5441 123.006 23.8828 121.171 22.5601C119.358 21.2161 118.419 19.2961 118.355 16.8001H124.051C124.286 18.9761 125.779 20.0641 128.531 20.0641C129.555 20.0641 130.419 19.8721 131.123 19.4881C131.848 19.0828 132.211 18.4748 132.211 17.6641C132.211 17.1094 131.987 16.6508 131.539 16.2881C131.091 15.9041 130.632 15.6374 130.163 15.4881C129.715 15.3388 128.851 15.1041 127.571 14.7841C127.507 14.7628 127.464 14.7521 127.443 14.7521C127.422 14.7308 127.39 14.7201 127.347 14.7201C127.304 14.6988 127.262 14.6881 127.219 14.6881C126.238 14.4534 125.427 14.2508 124.787 14.0801C124.168 13.8881 123.454 13.6108 122.643 13.2481C121.854 12.8641 121.224 12.4481 120.755 12.0001C120.286 11.5521 119.88 10.9654 119.539 10.2401C119.219 9.49344 119.059 8.66144 119.059 7.7441C119.059 5.39744 119.891 3.63744 121.555 2.4641C123.24 1.29077 125.438 0.704102 128.147 0.704102C130.75 0.704102 132.872 1.30143 134.515 2.4961C136.179 3.69077 137.064 5.4401 137.171 7.7441H131.635C131.528 6.86944 131.155 6.19744 130.515 5.7281C129.875 5.23743 129.022 4.9921 127.955 4.9921C126.974 4.9921 126.174 5.19477 125.555 5.6001C124.958 5.9841 124.659 6.4961 124.659 7.1361C124.659 7.86144 125.022 8.39477 125.747 8.7361C126.472 9.0561 127.838 9.4401 129.843 9.8881C131.102 10.1868 132.136 10.4854 132.947 10.7841C133.758 11.0614 134.579 11.4668 135.411 12.0001C136.264 12.5334 136.894 13.2268 137.299 14.0801C137.726 14.9121 137.939 15.9148 137.939 17.0881C137.939 19.4134 137.054 21.2374 135.283 22.5601C133.534 23.8828 131.294 24.5441 128.563 24.5441Z" fill="white"/>
<path d="M140.255 24.0001V1.1201H145.919V9.7921H153.951V1.1201H159.615V24.0001H153.951V14.4641H145.919V24.0001H140.255Z" fill="white"/>
<path d="M166.837 7.3521L165.653 6.4881L166.837 4.9201L164.965 4.2961L165.477 2.9681L167.253 3.5921V1.5601H168.757V3.5921L170.533 2.9681L171.045 4.2961L169.173 4.9201L170.357 6.4881L169.205 7.3521L168.021 5.6881L166.837 7.3521Z" fill="white"/>
</svg>
